<svg viewBox="0 0 700 500" xmlns="http://www.w3.org/2000/svg">
  <defs>
    <linearGradient id="bg2" x1="0" y1="0" x2="1" y2="1">
      <stop offset="0%" stop-color="#f4fbff"/>
      <stop offset="100%" stop-color="#e3f4ff"/>
    </linearGradient>
    <linearGradient id="card" x1="0" y1="0" x2="1" y2="1">
      <stop offset="0%" stop-color="#ffffff"/>
      <stop offset="100%" stop-color="#ecf8ff"/>
    </linearGradient>
  </defs>
  <rect width="700" height="500" rx="48" ry="48" fill="url(#bg2)"/>
  <rect x="90" y="80" width="520" height="340" rx="44" fill="url(#card)" stroke="#d3edf9" stroke-width="14"/>
  <rect x="140" y="130" width="180" height="36" rx="18" fill="#00b4d8" opacity="0.9"/>
  <rect x="140" y="190" width="420" height="22" rx="11" fill="#48cae4"/>
  <rect x="140" y="230" width="360" height="22" rx="11" fill="#00b4d8"/>
  <rect x="140" y="270" width="260" height="22" rx="11" fill="#2c7aab"/>
  <path d="M160 330 l50 70 h150 l40 -60" fill="#00b4d8" opacity="0.08"/>
  <rect x="420" y="320" width="110" height="70" rx="20" ry="20" fill="#0077b6"/>
  <rect x="430" y="334" width="90" height="12" rx="6" fill="#d6f3ff"/>
  <rect x="430" y="360" width="90" height="12" rx="6" fill="#d6f3ff"/>
  <rect x="430" y="386" width="90" height="12" rx="6" fill="#d6f3ff"/>
  <circle cx="180" cy="360" r="32" fill="#00b4d8"/>
  <path d="M170 360 l20 0" stroke="#fff" stroke-width="8" stroke-linecap="round"/>
  <path d="M180 350 l0 20" stroke="#fff" stroke-width="8" stroke-linecap="round"/>
</svg>