<svg viewBox="0 0 700 500" xmlns="http://www.w3.org/2000/svg">
  <defs>
    <linearGradient id="bg" x1="0" y1="0" x2="1" y2="1">
      <stop offset="0%" stop-color="#d6f3ff"/>
      <stop offset="100%" stop-color="#eef8ff"/>
    </linearGradient>
    <linearGradient id="pill" x1="0" y1="0" x2="1" y2="1">
      <stop offset="0%" stop-color="#00b4d8"/>
      <stop offset="100%" stop-color="#48cae4"/>
    </linearGradient>
  </defs>
  <rect width="700" height="500" rx="48" ry="48" fill="url(#bg)"/>
  <path d="M140 130 h420 a24 24 0 0 1 24 24 v160 a24 24 0 0 1 -24 24 h-420 a24 24 0 0 1 -24 -24 v-160 a24 24 0 0 1 24 -24 z" fill="#fff" stroke="#d3edf9" stroke-width="12"/>
  <circle cx="210" cy="200" r="24" fill="#00b4d8" opacity="0.95"/>
  <rect x="320" y="175" width="240" height="20" rx="10" fill="#48cae4"/>
  <rect x="320" y="215" width="260" height="20" rx="10" fill="#00b4d8"/>
  <rect x="320" y="255" width="180" height="20" rx="10" fill="#2c7aab"/>
  <path d="M220 310 c30 -50 80 -70 120 -50 c35 18 70 12 95 -10" fill="none" stroke="#00b4d8" stroke-width="18" stroke-linecap="round"/>
  <rect x="65" y="320" width="140" height="110" rx="24" ry="24" fill="#fff" stroke="#d3edf9" stroke-width="12"/>
  <path d="M90 350 h80" stroke="#00b4d8" stroke-width="16" stroke-linecap="round"/>
  <path d="M90 390 h80" stroke="#48cae4" stroke-width="16" stroke-linecap="round"/>
  <path d="M90 430 h80" stroke="#2c7aab" stroke-width="16" stroke-linecap="round"/>
  <circle cx="525" cy="360" r="70" fill="url(#pill)" opacity="0.95"/>
  <path d="M505 345 l45 45" stroke="#fff" stroke-width="16" stroke-linecap="round"/>
  <path d="M505 395 l45 -45" stroke="#fff" stroke-width="16" stroke-linecap="round"/>
</svg>