<svg viewBox="0 0 700 500" xmlns="http://www.w3.org/2000/svg">
  <defs>
    <linearGradient id="bg3" x1="0" y1="0" x2="1" y2="1">
      <stop offset="0%" stop-color="#eef8ff"/>
      <stop offset="100%" stop-color="#d4f0ff"/>
    </linearGradient>
    <linearGradient id="suitcase" x1="0" y1="0" x2="1" y2="1">
      <stop offset="0%" stop-color="#00b4d8"/>
      <stop offset="100%" stop-color="#0077b6"/>
    </linearGradient>
  </defs>
  <rect width="700" height="500" rx="48" ry="48" fill="url(#bg3)"/>
  <rect x="145" y="150" width="410" height="240" rx="28" fill="#fff" stroke="#d3edf9" stroke-width="14"/>
  <rect x="190" y="210" width="320" height="180" rx="24" fill="#f7fdff"/>
  <rect x="280" y="180" width="140" height="50" rx="24" fill="url(#suitcase)"/>
  <path d="M200 250 q70 -80 150 -40 q70 40 120 -20" fill="none" stroke="#00b4d8" stroke-width="16" stroke-linecap="round"/>
  <circle cx="220" cy="242" r="18" fill="#48cae4"/>
  <circle cx="350" cy="188" r="18" fill="#00b4d8"/>
  <circle cx="430" cy="265" r="18" fill="#2c7aab"/>
  <rect x="220" y="280" width="120" height="20" rx="10" fill="#00b4d8" opacity="0.9"/>
  <rect x="220" y="320" width="220" height="20" rx="10" fill="#48cae4" opacity="0.95"/>
  <rect x="220" y="360" width="170" height="20" rx="10" fill="#0077b6"/>
  <path d="M420 350 l40 -70 l60 35" fill="none" stroke="#00b4d8" stroke-width="12" stroke-linecap="round"/>
  <circle cx="460" cy="300" r="12" fill="#00b4d8"/>
  <circle cx="518" cy="323" r="11" fill="#0077b6"/>
</svg>