<svg viewBox="0 0 700 500" xmlns="http://www.w3.org/2000/svg">
  <defs>
    <linearGradient id="bg4" x1="0" y1="0" x2="1" y2="1">
      <stop offset="0%" stop-color="#f2fbff"/>
      <stop offset="100%" stop-color="#e8f4ff"/>
    </linearGradient>
    <linearGradient id="gear" x1="0" y1="0" x2="1" y2="1">
      <stop offset="0%" stop-color="#00b4d8"/>
      <stop offset="100%" stop-color="#0077b6"/>
    </linearGradient>
  </defs>
  <rect width="700" height="500" rx="48" ry="48" fill="url(#bg4)"/>
  <circle cx="320" cy="260" r="120" fill="url(#gear)" opacity="0.96"/>
  <g fill="#fff" opacity="0.9">
    <rect x="270" y="180" width="100" height="40" rx="20"/>
    <rect x="310" y="340" width="80" height="40" rx="20"/>
  </g>
  <circle cx="320" cy="260" r="52" fill="#f4fbff"/>
  <path d="M320 218 l18 -32 h32 l18 32 l32 18 v36 l-32 18 l-18 32 h-32 l-18 -32 l-32 -18 v-36 z" fill="none" stroke="#fff" stroke-width="14"/>
  <circle cx="320" cy="260" r="24" fill="#00b4d8"/>
  <rect x="155" y="80" width="220" height="120" rx="22" fill="#fff" stroke="#d3edf9" stroke-width="12"/>
  <rect x="175" y="110" width="180" height="20" rx="10" fill="#00b4d8" opacity="0.85"/>
  <rect x="175" y="150" width="150" height="16" rx="8" fill="#48cae4"/>
  <rect x="175" y="182" width="180" height="16" rx="8" fill="#00b4d8"/>
  <rect x="420" y="110" width="180" height="180" rx="24" fill="#fff" stroke="#d3edf9" stroke-width="12"/>
  <path d="M450 150 q40 40 80 0" fill="none" stroke="#00b4d8" stroke-width="16" stroke-linecap="round"/>
  <path d="M470 225 q25 -30 55 -10" fill="none" stroke="#48cae4" stroke-width="16" stroke-linecap="round"/>
</svg>